G04*
G04 #@! TF.GenerationSoftware,Altium Limited,Altium Designer,23.10.1 (27)*
G04*
G04 Layer_Color=65535*
%FSLAX44Y44*%
%MOMM*%
G71*
G04*
G04 #@! TF.SameCoordinates,EF3A79F6-4BF0-4314-9102-79B481C5C986*
G04*
G04*
G04 #@! TF.FilePolarity,Positive*
G04*
G01*
G75*
%ADD10C,0.2000*%
%ADD11C,0.1270*%
%ADD12C,0.1524*%
%ADD13C,0.2540*%
D10*
X1004838Y683060D02*
G03*
X1004504Y652334I-29910J-15040D01*
G01*
X1313753Y683060D02*
G03*
X1313419Y652334I-29910J-15040D01*
G01*
X1210781Y683060D02*
G03*
X1210447Y652334I-29910J-15040D01*
G01*
X901866Y683060D02*
G03*
X901532Y652334I-29910J-15040D01*
G01*
X1107809Y683060D02*
G03*
X1107475Y652334I-29910J-15040D01*
G01*
X798894Y683060D02*
G03*
X798560Y652334I-29910J-15040D01*
G01*
X629750Y589280D02*
G03*
X629750Y589280I-1000J0D01*
G01*
X1004500Y652362D02*
Y658720D01*
X1004900Y676656D02*
Y683016D01*
X1313815Y676656D02*
Y683016D01*
X1313415Y652362D02*
Y658720D01*
X1210443Y652362D02*
Y658720D01*
X1210843Y676656D02*
Y683016D01*
X901928Y676656D02*
Y683016D01*
X901528Y652362D02*
Y658720D01*
X1107472Y652362D02*
Y658720D01*
X1107872Y676656D02*
Y683016D01*
X798957Y676656D02*
Y683016D01*
X798557Y652362D02*
Y658720D01*
X730310Y543090D02*
X991810D01*
Y516090D02*
Y543090D01*
X730310Y516090D02*
X991810D01*
X730310D02*
Y543090D01*
X1055430D02*
X1316930D01*
Y516090D02*
Y543090D01*
X1055430Y516090D02*
X1316930D01*
X1055430D02*
Y543090D01*
X1351915Y842899D02*
Y871601D01*
Y842899D02*
X1381125D01*
Y871601D01*
X1351915D02*
X1381125D01*
X738570Y844300D02*
X762570D01*
Y781300D02*
Y844300D01*
X738570Y781300D02*
Y844300D01*
Y781300D02*
X762570D01*
X1065468Y844300D02*
X1089468D01*
Y781300D02*
Y844300D01*
X1065468Y781300D02*
Y844300D01*
Y781300D02*
X1089468D01*
X847536Y844300D02*
X871536D01*
Y781300D02*
Y844300D01*
X847536Y781300D02*
Y844300D01*
Y781300D02*
X871536D01*
X1174434Y844300D02*
X1198434D01*
Y781300D02*
Y844300D01*
X1174434Y781300D02*
Y844300D01*
Y781300D02*
X1198434D01*
X1283400Y844300D02*
X1307400D01*
Y781300D02*
Y844300D01*
X1283400Y781300D02*
Y844300D01*
Y781300D02*
X1307400D01*
X956502Y844300D02*
X980502D01*
Y781300D02*
Y844300D01*
X956502Y781300D02*
Y844300D01*
Y781300D02*
X980502D01*
D11*
X636750Y619280D02*
X696750D01*
Y600030D02*
Y619280D01*
Y559280D02*
Y578530D01*
X636750Y559280D02*
X696750D01*
X636750D02*
Y578530D01*
Y600030D02*
Y619280D01*
D12*
X984250Y548640D02*
X987636D01*
X985943D01*
Y558797D01*
X984250Y557104D01*
X992714D02*
X994407Y558797D01*
X997792D01*
X999485Y557104D01*
Y550333D01*
X997792Y548640D01*
X994407D01*
X992714Y550333D01*
Y557104D01*
X744220Y548640D02*
X747606D01*
X745913D01*
Y558797D01*
X744220Y557104D01*
X1294130Y548640D02*
X1297516D01*
X1295823D01*
Y558797D01*
X1294130Y557104D01*
X1302594D02*
X1304287Y558797D01*
X1307672D01*
X1309365Y557104D01*
Y550333D01*
X1307672Y548640D01*
X1304287D01*
X1302594Y550333D01*
Y557104D01*
X1061720Y548640D02*
X1065106D01*
X1063413D01*
Y558797D01*
X1061720Y557104D01*
D13*
X1351280Y543555D02*
Y528320D01*
X1361437D01*
X1376672Y543555D02*
X1366515D01*
Y528320D01*
X1376672D01*
X1366515Y535938D02*
X1371593D01*
X1381750Y543555D02*
Y528320D01*
X1389368D01*
X1391907Y530859D01*
Y541016D01*
X1389368Y543555D01*
X1381750D01*
X1350010Y580385D02*
Y565150D01*
X1355088Y570228D01*
X1360167Y565150D01*
Y580385D01*
X1375402D02*
X1370323D01*
X1372863D01*
Y567689D01*
X1370323Y565150D01*
X1367784D01*
X1365245Y567689D01*
X1380480Y565150D02*
Y580385D01*
X1388098D01*
X1390637Y577846D01*
Y572767D01*
X1388098Y570228D01*
X1380480D01*
X1362707Y896361D02*
X1357628D01*
X1360168D01*
Y883665D01*
X1357628Y881126D01*
X1355089D01*
X1352550Y883665D01*
X1367785Y893822D02*
X1370324Y896361D01*
X1375403D01*
X1377942Y893822D01*
Y891283D01*
X1375403Y888744D01*
X1372863D01*
X1375403D01*
X1377942Y886204D01*
Y883665D01*
X1375403Y881126D01*
X1370324D01*
X1367785Y883665D01*
X639569Y642362D02*
X637029Y644901D01*
X631951D01*
X629412Y642362D01*
Y639823D01*
X631951Y637284D01*
X637029D01*
X639569Y634744D01*
Y632205D01*
X637029Y629666D01*
X631951D01*
X629412Y632205D01*
X644647Y629666D02*
X649725D01*
X647186D01*
Y644901D01*
X644647Y642362D01*
X739902Y873506D02*
Y888741D01*
X747520D01*
X750059Y886202D01*
Y881124D01*
X747520Y878584D01*
X739902D01*
X744980D02*
X750059Y873506D01*
X765294Y888741D02*
X760215Y886202D01*
X755137Y881124D01*
Y876045D01*
X757676Y873506D01*
X762755D01*
X765294Y876045D01*
Y878584D01*
X762755Y881124D01*
X755137D01*
X1066800Y873506D02*
Y888741D01*
X1074417D01*
X1076957Y886202D01*
Y881124D01*
X1074417Y878584D01*
X1066800D01*
X1071878D02*
X1076957Y873506D01*
X1092192Y888741D02*
X1082035D01*
Y881124D01*
X1087113Y883663D01*
X1089653D01*
X1092192Y881124D01*
Y876045D01*
X1089653Y873506D01*
X1084574D01*
X1082035Y876045D01*
X848868Y873506D02*
Y888741D01*
X856486D01*
X859025Y886202D01*
Y881124D01*
X856486Y878584D01*
X848868D01*
X853946D02*
X859025Y873506D01*
X871721D02*
Y888741D01*
X864103Y881124D01*
X874260D01*
X1175766Y873506D02*
Y888741D01*
X1183383D01*
X1185923Y886202D01*
Y881124D01*
X1183383Y878584D01*
X1175766D01*
X1180844D02*
X1185923Y873506D01*
X1191001Y886202D02*
X1193540Y888741D01*
X1198619D01*
X1201158Y886202D01*
Y883663D01*
X1198619Y881124D01*
X1196079D01*
X1198619D01*
X1201158Y878584D01*
Y876045D01*
X1198619Y873506D01*
X1193540D01*
X1191001Y876045D01*
X1284732Y873506D02*
Y888741D01*
X1292350D01*
X1294889Y886202D01*
Y881124D01*
X1292350Y878584D01*
X1284732D01*
X1289810D02*
X1294889Y873506D01*
X1310124D02*
X1299967D01*
X1310124Y883663D01*
Y886202D01*
X1307585Y888741D01*
X1302506D01*
X1299967Y886202D01*
X957834Y873506D02*
Y888741D01*
X965452D01*
X967991Y886202D01*
Y881124D01*
X965452Y878584D01*
X957834D01*
X962912D02*
X967991Y873506D01*
X973069D02*
X978147D01*
X975608D01*
Y888741D01*
X973069Y886202D01*
X742951Y507998D02*
X737872D01*
X740412D01*
Y495302D01*
X737872Y492762D01*
X735333D01*
X732794Y495302D01*
X758186Y492762D02*
X748029D01*
X758186Y502919D01*
Y505458D01*
X755647Y507998D01*
X750568D01*
X748029Y505458D01*
X1070610Y507998D02*
X1065532D01*
X1068071D01*
Y495302D01*
X1065532Y492762D01*
X1062992D01*
X1060453Y495302D01*
X1075688Y492762D02*
X1080767D01*
X1078228D01*
Y507998D01*
X1075688Y505458D01*
X739648Y721609D02*
Y706374D01*
X747265D01*
X749805Y708913D01*
Y719070D01*
X747265Y721609D01*
X739648D01*
X765040Y719070D02*
X762501Y721609D01*
X757422D01*
X754883Y719070D01*
Y716531D01*
X757422Y713991D01*
X762501D01*
X765040Y711452D01*
Y708913D01*
X762501Y706374D01*
X757422D01*
X754883Y708913D01*
X780275Y721609D02*
X775197Y719070D01*
X770118Y713991D01*
Y708913D01*
X772657Y706374D01*
X777736D01*
X780275Y708913D01*
Y711452D01*
X777736Y713991D01*
X770118D01*
X1048512Y721609D02*
Y706374D01*
X1056130D01*
X1058669Y708913D01*
Y719070D01*
X1056130Y721609D01*
X1048512D01*
X1073904Y719070D02*
X1071365Y721609D01*
X1066286D01*
X1063747Y719070D01*
Y716531D01*
X1066286Y713991D01*
X1071365D01*
X1073904Y711452D01*
Y708913D01*
X1071365Y706374D01*
X1066286D01*
X1063747Y708913D01*
X1089139Y721609D02*
X1078982D01*
Y713991D01*
X1084061Y716531D01*
X1086600D01*
X1089139Y713991D01*
Y708913D01*
X1086600Y706374D01*
X1081521D01*
X1078982Y708913D01*
X842518Y721609D02*
Y706374D01*
X850135D01*
X852675Y708913D01*
Y719070D01*
X850135Y721609D01*
X842518D01*
X867910Y719070D02*
X865371Y721609D01*
X860292D01*
X857753Y719070D01*
Y716531D01*
X860292Y713991D01*
X865371D01*
X867910Y711452D01*
Y708913D01*
X865371Y706374D01*
X860292D01*
X857753Y708913D01*
X880606Y706374D02*
Y721609D01*
X872988Y713991D01*
X883145D01*
X1151636Y721609D02*
Y706374D01*
X1159253D01*
X1161793Y708913D01*
Y719070D01*
X1159253Y721609D01*
X1151636D01*
X1177028Y719070D02*
X1174489Y721609D01*
X1169410D01*
X1166871Y719070D01*
Y716531D01*
X1169410Y713991D01*
X1174489D01*
X1177028Y711452D01*
Y708913D01*
X1174489Y706374D01*
X1169410D01*
X1166871Y708913D01*
X1182106Y719070D02*
X1184645Y721609D01*
X1189724D01*
X1192263Y719070D01*
Y716531D01*
X1189724Y713991D01*
X1187185D01*
X1189724D01*
X1192263Y711452D01*
Y708913D01*
X1189724Y706374D01*
X1184645D01*
X1182106Y708913D01*
X1254506Y721609D02*
Y706374D01*
X1262123D01*
X1264663Y708913D01*
Y719070D01*
X1262123Y721609D01*
X1254506D01*
X1279898Y719070D02*
X1277359Y721609D01*
X1272280D01*
X1269741Y719070D01*
Y716531D01*
X1272280Y713991D01*
X1277359D01*
X1279898Y711452D01*
Y708913D01*
X1277359Y706374D01*
X1272280D01*
X1269741Y708913D01*
X1295133Y706374D02*
X1284976D01*
X1295133Y716531D01*
Y719070D01*
X1292594Y721609D01*
X1287515D01*
X1284976Y719070D01*
X945642Y721609D02*
Y706374D01*
X953260D01*
X955799Y708913D01*
Y719070D01*
X953260Y721609D01*
X945642D01*
X971034Y719070D02*
X968495Y721609D01*
X963416D01*
X960877Y719070D01*
Y716531D01*
X963416Y713991D01*
X968495D01*
X971034Y711452D01*
Y708913D01*
X968495Y706374D01*
X963416D01*
X960877Y708913D01*
X976112Y706374D02*
X981190D01*
X978651D01*
Y721609D01*
X976112Y719070D01*
M02*
