M48
;Layer_Color=9474304
;FILE_FORMAT=4:4
METRIC,LZ
;TYPE=PLATED
T01F00S00C0.8500
T02F00S00C0.8890
T03F00S00C1.0000
T04F00S00C1.0200
%
T01
X012954Y007678
X01186434
X01077468
X00968502
X00859536
X0075057
Y008578
X00859536
X00968502
X01077468
X01186434
X012954
T02
X01203223Y0066802
X01259332
X01274826
X01290574
X01306195
X01187602
X01171854
X0115636
X01100252
X01084631
X01068883
X01053389
X0099728
X00981659
X00965911
X00950417
X00894308
X00878687
X00862939
X00847445
X00791337
X00775716
X00759968
X00744474
T03
X0064175Y0058928
X0069175
T04
X0119888Y0052959
X0122428
X0124968
X0127508
X0130048
X0117348
X0114808
X0112268
X0109728
X0107188
X0097536
X0094996
X0092456
X0089916
X0087376
X0084836
X0082296
X0079756
X0077216
X0074676
X0136652Y0085725
M30
