G04*
G04 #@! TF.GenerationSoftware,Altium Limited,Altium Designer,23.10.1 (27)*
G04*
G04 Layer_Physical_Order=2*
G04 Layer_Color=16711680*
%FSLAX44Y44*%
%MOMM*%
G71*
G04*
G04 #@! TF.SameCoordinates,EF3A79F6-4BF0-4314-9102-79B481C5C986*
G04*
G04*
G04 #@! TF.FilePolarity,Positive*
G04*
G01*
G75*
%ADD18C,1.5700*%
%ADD22C,1.0700*%
%ADD23R,1.0700X1.0700*%
%ADD24C,1.5200*%
G04:AMPARAMS|DCode=25|XSize=1.52mm|YSize=1.52mm|CornerRadius=0.38mm|HoleSize=0mm|Usage=FLASHONLY|Rotation=0.000|XOffset=0mm|YOffset=0mm|HoleType=Round|Shape=RoundedRectangle|*
%AMROUNDEDRECTD25*
21,1,1.5200,0.7600,0,0,0.0*
21,1,0.7600,1.5200,0,0,0.0*
1,1,0.7600,0.3800,-0.3800*
1,1,0.7600,-0.3800,-0.3800*
1,1,0.7600,-0.3800,0.3800*
1,1,0.7600,0.3800,0.3800*
%
%ADD25ROUNDEDRECTD25*%
%ADD26R,1.3500X1.3500*%
%ADD27C,1.3500*%
%ADD28C,1.5080*%
G36*
X1419860Y909320D02*
Y472440D01*
X610870D01*
Y910960D01*
X611769Y911857D01*
X1419860Y909320D01*
D02*
G37*
%LPC*%
G36*
X1296670Y867077D02*
Y859070D01*
X1304677D01*
X1304057Y861386D01*
X1302834Y863504D01*
X1301104Y865234D01*
X1298986Y866457D01*
X1296670Y867077D01*
D02*
G37*
G36*
X1187704D02*
Y859070D01*
X1195711D01*
X1195091Y861386D01*
X1193868Y863504D01*
X1192138Y865234D01*
X1190020Y866457D01*
X1187704Y867077D01*
D02*
G37*
G36*
X1078738D02*
Y859070D01*
X1086745D01*
X1086125Y861386D01*
X1084902Y863504D01*
X1083172Y865234D01*
X1081054Y866457D01*
X1078738Y867077D01*
D02*
G37*
G36*
X969772D02*
Y859070D01*
X977779D01*
X977159Y861386D01*
X975936Y863504D01*
X974206Y865234D01*
X972088Y866457D01*
X969772Y867077D01*
D02*
G37*
G36*
X860806D02*
Y859070D01*
X868813D01*
X868193Y861386D01*
X866970Y863504D01*
X865240Y865234D01*
X863122Y866457D01*
X860806Y867077D01*
D02*
G37*
G36*
X751840D02*
Y859070D01*
X759847D01*
X759227Y861386D01*
X758004Y863504D01*
X756274Y865234D01*
X754156Y866457D01*
X751840Y867077D01*
D02*
G37*
G36*
X1294130Y867077D02*
X1291814Y866457D01*
X1289696Y865234D01*
X1287966Y863504D01*
X1286743Y861386D01*
X1286123Y859070D01*
X1294130D01*
Y867077D01*
D02*
G37*
G36*
X1076198D02*
X1073882Y866457D01*
X1071764Y865234D01*
X1070034Y863504D01*
X1068811Y861386D01*
X1068191Y859070D01*
X1076198D01*
Y867077D01*
D02*
G37*
G36*
X967232D02*
X964916Y866457D01*
X962798Y865234D01*
X961068Y863504D01*
X959845Y861386D01*
X959225Y859070D01*
X967232D01*
Y867077D01*
D02*
G37*
G36*
X858266D02*
X855950Y866457D01*
X853832Y865234D01*
X852102Y863504D01*
X850879Y861386D01*
X850259Y859070D01*
X858266D01*
Y867077D01*
D02*
G37*
G36*
X1185164D02*
X1182848Y866457D01*
X1180730Y865234D01*
X1179000Y863504D01*
X1177777Y861386D01*
X1177157Y859070D01*
X1185164D01*
Y867077D01*
D02*
G37*
G36*
X749300D02*
X746984Y866457D01*
X744866Y865234D01*
X743136Y863504D01*
X741913Y861386D01*
X741293Y859070D01*
X749300D01*
Y867077D01*
D02*
G37*
G36*
X1367888Y867640D02*
X1367790D01*
Y858520D01*
X1376910D01*
Y858618D01*
X1376202Y861260D01*
X1374834Y863630D01*
X1372900Y865564D01*
X1370530Y866932D01*
X1367888Y867640D01*
D02*
G37*
G36*
X1365250D02*
X1365152D01*
X1362510Y866932D01*
X1360140Y865564D01*
X1358206Y863630D01*
X1356838Y861260D01*
X1356130Y858618D01*
Y858520D01*
X1365250D01*
Y867640D01*
D02*
G37*
G36*
X1195711Y856530D02*
X1187704D01*
Y848523D01*
X1190020Y849143D01*
X1192138Y850366D01*
X1193868Y852096D01*
X1195091Y854214D01*
X1195711Y856530D01*
D02*
G37*
G36*
X868813D02*
X860806D01*
Y848523D01*
X863122Y849143D01*
X865240Y850366D01*
X866970Y852096D01*
X868193Y854214D01*
X868813Y856530D01*
D02*
G37*
G36*
X1304677D02*
X1296670D01*
Y848523D01*
X1298986Y849143D01*
X1301104Y850366D01*
X1302834Y852096D01*
X1304057Y854214D01*
X1304677Y856530D01*
D02*
G37*
G36*
X1086745D02*
X1078738D01*
Y848523D01*
X1081054Y849143D01*
X1083172Y850366D01*
X1084902Y852096D01*
X1086125Y854214D01*
X1086745Y856530D01*
D02*
G37*
G36*
X977779D02*
X969772D01*
Y848523D01*
X972088Y849143D01*
X974206Y850366D01*
X975936Y852096D01*
X977159Y854214D01*
X977779Y856530D01*
D02*
G37*
G36*
X759847D02*
X751840D01*
Y848523D01*
X754156Y849143D01*
X756274Y850366D01*
X758004Y852096D01*
X759227Y854214D01*
X759847Y856530D01*
D02*
G37*
G36*
X1294130D02*
X1286123D01*
X1286743Y854214D01*
X1287966Y852096D01*
X1289696Y850366D01*
X1291814Y849143D01*
X1294130Y848523D01*
Y856530D01*
D02*
G37*
G36*
X1076198D02*
X1068191D01*
X1068811Y854214D01*
X1070034Y852096D01*
X1071764Y850366D01*
X1073882Y849143D01*
X1076198Y848523D01*
Y856530D01*
D02*
G37*
G36*
X967232D02*
X959225D01*
X959845Y854214D01*
X961068Y852096D01*
X962798Y850366D01*
X964916Y849143D01*
X967232Y848523D01*
Y856530D01*
D02*
G37*
G36*
X749300D02*
X741293D01*
X741913Y854214D01*
X743136Y852096D01*
X744866Y850366D01*
X746984Y849143D01*
X749300Y848523D01*
Y856530D01*
D02*
G37*
G36*
X1185164D02*
X1177157D01*
X1177777Y854214D01*
X1179000Y852096D01*
X1180730Y850366D01*
X1182848Y849143D01*
X1185164Y848523D01*
Y856530D01*
D02*
G37*
G36*
X858266D02*
X850259D01*
X850879Y854214D01*
X852102Y852096D01*
X853832Y850366D01*
X855950Y849143D01*
X858266Y848523D01*
Y856530D01*
D02*
G37*
G36*
X1376910Y855980D02*
X1367790D01*
Y846860D01*
X1367888D01*
X1370530Y847568D01*
X1372900Y848936D01*
X1374834Y850870D01*
X1376202Y853240D01*
X1376910Y855882D01*
Y855980D01*
D02*
G37*
G36*
X1365250D02*
X1356130D01*
Y855882D01*
X1356838Y853240D01*
X1358206Y850870D01*
X1360140Y848936D01*
X1362510Y847568D01*
X1365152Y846860D01*
X1365250D01*
Y855980D01*
D02*
G37*
G36*
X1304690Y777090D02*
X1286110D01*
Y758510D01*
X1304690D01*
Y777090D01*
D02*
G37*
G36*
X1195724D02*
X1177144D01*
Y758510D01*
X1195724D01*
Y777090D01*
D02*
G37*
G36*
X1086758D02*
X1068178D01*
Y758510D01*
X1086758D01*
Y777090D01*
D02*
G37*
G36*
X977792D02*
X959212D01*
Y758510D01*
X977792D01*
Y777090D01*
D02*
G37*
G36*
X868826D02*
X850246D01*
Y758510D01*
X868826D01*
Y777090D01*
D02*
G37*
G36*
X759860D02*
X741280D01*
Y758510D01*
X759860D01*
Y777090D01*
D02*
G37*
G36*
X1314085Y675910D02*
X1298305D01*
Y672950D01*
X1297035Y672609D01*
X1296888Y672865D01*
X1295419Y674334D01*
X1293619Y675372D01*
X1291613Y675910D01*
X1289535D01*
X1287529Y675372D01*
X1285729Y674334D01*
X1284260Y672865D01*
X1283407Y671386D01*
X1282934Y671263D01*
X1282466D01*
X1281993Y671386D01*
X1281140Y672865D01*
X1279670Y674334D01*
X1277871Y675372D01*
X1275865Y675910D01*
X1273787D01*
X1271780Y675372D01*
X1269981Y674334D01*
X1268512Y672865D01*
X1267794Y671621D01*
X1266363D01*
X1265646Y672865D01*
X1264176Y674334D01*
X1262377Y675372D01*
X1260371Y675910D01*
X1258293D01*
X1256286Y675372D01*
X1254487Y674334D01*
X1253018Y672865D01*
X1251980Y671065D01*
X1251442Y669059D01*
Y666981D01*
X1251980Y664975D01*
X1253018Y663175D01*
X1254487Y661706D01*
X1256286Y660668D01*
X1258293Y660130D01*
X1260371D01*
X1262377Y660668D01*
X1264176Y661706D01*
X1265646Y663175D01*
X1266363Y664419D01*
X1267794D01*
X1268512Y663175D01*
X1269981Y661706D01*
X1271780Y660668D01*
X1273787Y660130D01*
X1275865D01*
X1277871Y660668D01*
X1279670Y661706D01*
X1281140Y663175D01*
X1281993Y664653D01*
X1282466Y664777D01*
X1282934D01*
X1283407Y664653D01*
X1284260Y663175D01*
X1285729Y661706D01*
X1287529Y660668D01*
X1289535Y660130D01*
X1291613D01*
X1293619Y660668D01*
X1295419Y661706D01*
X1296888Y663175D01*
X1297035Y663431D01*
X1298305Y663091D01*
Y660130D01*
X1314085D01*
Y675910D01*
D02*
G37*
G36*
X1211113D02*
X1195333D01*
Y672950D01*
X1194063Y672609D01*
X1193916Y672865D01*
X1192447Y674334D01*
X1190648Y675372D01*
X1188641Y675910D01*
X1186563D01*
X1184557Y675372D01*
X1182758Y674334D01*
X1181289Y672865D01*
X1180435Y671386D01*
X1179963Y671263D01*
X1179494D01*
X1179021Y671386D01*
X1178168Y672865D01*
X1176699Y674334D01*
X1174900Y675372D01*
X1172893Y675910D01*
X1170816D01*
X1168809Y675372D01*
X1167010Y674334D01*
X1165541Y672865D01*
X1164823Y671621D01*
X1163392D01*
X1162674Y672865D01*
X1161205Y674334D01*
X1159406Y675372D01*
X1157399Y675910D01*
X1155322D01*
X1153315Y675372D01*
X1151516Y674334D01*
X1150047Y672865D01*
X1149008Y671065D01*
X1148470Y669059D01*
Y666981D01*
X1149008Y664975D01*
X1150047Y663175D01*
X1151516Y661706D01*
X1153315Y660668D01*
X1155322Y660130D01*
X1157399D01*
X1159406Y660668D01*
X1161205Y661706D01*
X1162674Y663175D01*
X1163392Y664419D01*
X1164823D01*
X1165541Y663175D01*
X1167010Y661706D01*
X1168809Y660668D01*
X1170816Y660130D01*
X1172893D01*
X1174900Y660668D01*
X1176699Y661706D01*
X1178168Y663175D01*
X1179021Y664653D01*
X1179494Y664777D01*
X1179963D01*
X1180435Y664653D01*
X1181289Y663175D01*
X1182758Y661706D01*
X1184557Y660668D01*
X1186563Y660130D01*
X1188641D01*
X1190648Y660668D01*
X1192447Y661706D01*
X1193916Y663175D01*
X1194063Y663431D01*
X1195333Y663091D01*
Y660130D01*
X1211113D01*
Y675910D01*
D02*
G37*
G36*
X1005170D02*
X989390D01*
Y672950D01*
X988120Y672609D01*
X987972Y672865D01*
X986504Y674334D01*
X984704Y675372D01*
X982698Y675910D01*
X980620D01*
X978614Y675372D01*
X976814Y674334D01*
X975345Y672865D01*
X974492Y671386D01*
X974019Y671263D01*
X973551D01*
X973078Y671386D01*
X972225Y672865D01*
X970755Y674334D01*
X968956Y675372D01*
X966950Y675910D01*
X964872D01*
X962866Y675372D01*
X961066Y674334D01*
X959597Y672865D01*
X958879Y671621D01*
X957448D01*
X956730Y672865D01*
X955262Y674334D01*
X953462Y675372D01*
X951456Y675910D01*
X949378D01*
X947372Y675372D01*
X945572Y674334D01*
X944103Y672865D01*
X943065Y671065D01*
X942527Y669059D01*
Y666981D01*
X943065Y664975D01*
X944103Y663175D01*
X945572Y661706D01*
X947372Y660668D01*
X949378Y660130D01*
X951456D01*
X953462Y660668D01*
X955262Y661706D01*
X956730Y663175D01*
X957448Y664419D01*
X958879D01*
X959597Y663175D01*
X961066Y661706D01*
X962866Y660668D01*
X964872Y660130D01*
X966950D01*
X968956Y660668D01*
X970755Y661706D01*
X972225Y663175D01*
X973078Y664653D01*
X973551Y664777D01*
X974019D01*
X974492Y664653D01*
X975345Y663175D01*
X976814Y661706D01*
X978614Y660668D01*
X980620Y660130D01*
X982698D01*
X984704Y660668D01*
X986504Y661706D01*
X987972Y663175D01*
X988120Y663431D01*
X989390Y663091D01*
Y660130D01*
X1005170D01*
Y675910D01*
D02*
G37*
G36*
X902198D02*
X886418D01*
Y672950D01*
X885148Y672609D01*
X885001Y672865D01*
X883532Y674334D01*
X881733Y675372D01*
X879726Y675910D01*
X877649D01*
X875642Y675372D01*
X873843Y674334D01*
X872374Y672865D01*
X871520Y671386D01*
X871048Y671263D01*
X870579D01*
X870106Y671386D01*
X869253Y672865D01*
X867784Y674334D01*
X865985Y675372D01*
X863978Y675910D01*
X861901D01*
X859894Y675372D01*
X858095Y674334D01*
X856626Y672865D01*
X855908Y671621D01*
X854477D01*
X853759Y672865D01*
X852290Y674334D01*
X850491Y675372D01*
X848484Y675910D01*
X846407D01*
X844400Y675372D01*
X842601Y674334D01*
X841132Y672865D01*
X840093Y671065D01*
X839555Y669059D01*
Y666981D01*
X840093Y664975D01*
X841132Y663175D01*
X842601Y661706D01*
X844400Y660668D01*
X846407Y660130D01*
X848484D01*
X850491Y660668D01*
X852290Y661706D01*
X853759Y663175D01*
X854477Y664419D01*
X855908D01*
X856626Y663175D01*
X858095Y661706D01*
X859894Y660668D01*
X861901Y660130D01*
X863978D01*
X865985Y660668D01*
X867784Y661706D01*
X869253Y663175D01*
X870106Y664653D01*
X870579Y664777D01*
X871048D01*
X871520Y664653D01*
X872374Y663175D01*
X873843Y661706D01*
X875642Y660668D01*
X877649Y660130D01*
X879726D01*
X881733Y660668D01*
X883532Y661706D01*
X885001Y663175D01*
X885148Y663431D01*
X886418Y663091D01*
Y660130D01*
X902198D01*
Y675910D01*
D02*
G37*
G36*
X799227D02*
X783447D01*
Y672950D01*
X782177Y672609D01*
X782029Y672865D01*
X780560Y674334D01*
X778761Y675372D01*
X776754Y675910D01*
X774677D01*
X772670Y675372D01*
X770871Y674334D01*
X769402Y672865D01*
X768549Y671386D01*
X768076Y671263D01*
X767607D01*
X767135Y671386D01*
X766281Y672865D01*
X764812Y674334D01*
X763013Y675372D01*
X761006Y675910D01*
X758929D01*
X756922Y675372D01*
X755123Y674334D01*
X753654Y672865D01*
X752936Y671621D01*
X751505D01*
X750787Y672865D01*
X749318Y674334D01*
X747519Y675372D01*
X745512Y675910D01*
X743435D01*
X741428Y675372D01*
X739629Y674334D01*
X738160Y672865D01*
X737121Y671065D01*
X736584Y669059D01*
Y666981D01*
X737121Y664975D01*
X738160Y663175D01*
X739629Y661706D01*
X741428Y660668D01*
X743435Y660130D01*
X745512D01*
X747519Y660668D01*
X749318Y661706D01*
X750787Y663175D01*
X751505Y664419D01*
X752936D01*
X753654Y663175D01*
X755123Y661706D01*
X756922Y660668D01*
X758929Y660130D01*
X761006D01*
X763013Y660668D01*
X764812Y661706D01*
X766281Y663175D01*
X767135Y664653D01*
X767607Y664777D01*
X768076D01*
X768549Y664653D01*
X769402Y663175D01*
X770871Y661706D01*
X772670Y660668D01*
X774677Y660130D01*
X776754D01*
X778761Y660668D01*
X780560Y661706D01*
X782029Y663175D01*
X782177Y663431D01*
X783447Y663091D01*
Y660130D01*
X799227D01*
Y675910D01*
D02*
G37*
G36*
X1108142D02*
X1092362D01*
Y672950D01*
X1091092Y672609D01*
X1090944Y672865D01*
X1089475Y674334D01*
X1087676Y675372D01*
X1085669Y675910D01*
X1083592D01*
X1081585Y675372D01*
X1079786Y674334D01*
X1078317Y672865D01*
X1077464Y671386D01*
X1076991Y671263D01*
X1076522D01*
X1076049Y671386D01*
X1075196Y672865D01*
X1073727Y674334D01*
X1071928Y675372D01*
X1069921Y675910D01*
X1067844D01*
X1065837Y675372D01*
X1064038Y674334D01*
X1062569Y672865D01*
X1061851Y671621D01*
X1060420D01*
X1059702Y672865D01*
X1058233Y674334D01*
X1056434Y675372D01*
X1054427Y675910D01*
X1052350D01*
X1050343Y675372D01*
X1048544Y674334D01*
X1047075Y672865D01*
X1046036Y671065D01*
X1045499Y669059D01*
Y666981D01*
X1046036Y664975D01*
X1047075Y663175D01*
X1048544Y661706D01*
X1050343Y660668D01*
X1052350Y660130D01*
X1054427D01*
X1056434Y660668D01*
X1058233Y661706D01*
X1059702Y663175D01*
X1060420Y664419D01*
X1061851D01*
X1062569Y663175D01*
X1064038Y661706D01*
X1065837Y660668D01*
X1067844Y660130D01*
X1069921D01*
X1071928Y660668D01*
X1073727Y661706D01*
X1075196Y663175D01*
X1076049Y664653D01*
X1076522Y664777D01*
X1076991D01*
X1077464Y664653D01*
X1078317Y663175D01*
X1079786Y661706D01*
X1081585Y660668D01*
X1083592Y660130D01*
X1085669D01*
X1087676Y660668D01*
X1089475Y661706D01*
X1090944Y663175D01*
X1091092Y663431D01*
X1092362Y663091D01*
Y660130D01*
X1108142D01*
Y675910D01*
D02*
G37*
G36*
X693077Y599360D02*
X690423D01*
X687859Y598673D01*
X685561Y597346D01*
X683684Y595469D01*
X682357Y593171D01*
X681670Y590607D01*
Y587953D01*
X682357Y585389D01*
X683684Y583091D01*
X685561Y581214D01*
X687859Y579887D01*
X690423Y579200D01*
X693077D01*
X695641Y579887D01*
X697939Y581214D01*
X699816Y583091D01*
X701143Y585389D01*
X701830Y587953D01*
Y590607D01*
X701143Y593171D01*
X699816Y595469D01*
X697939Y597346D01*
X695641Y598673D01*
X693077Y599360D01*
D02*
G37*
G36*
X643077D02*
X640423D01*
X637859Y598673D01*
X635561Y597346D01*
X633684Y595469D01*
X632357Y593171D01*
X631670Y590607D01*
Y587953D01*
X632357Y585389D01*
X633684Y583091D01*
X635561Y581214D01*
X637859Y579887D01*
X640423Y579200D01*
X643077D01*
X645641Y579887D01*
X647939Y581214D01*
X649816Y583091D01*
X651143Y585389D01*
X651830Y587953D01*
Y590607D01*
X651143Y593171D01*
X649816Y595469D01*
X647939Y597346D01*
X645641Y598673D01*
X643077Y599360D01*
D02*
G37*
G36*
X1301815Y539730D02*
X1299145D01*
X1296566Y539039D01*
X1294254Y537704D01*
X1292366Y535816D01*
X1291031Y533504D01*
X1290340Y530925D01*
Y528255D01*
X1291031Y525676D01*
X1292366Y523364D01*
X1294254Y521476D01*
X1296566Y520141D01*
X1299145Y519450D01*
X1301815D01*
X1304394Y520141D01*
X1306706Y521476D01*
X1308594Y523364D01*
X1309929Y525676D01*
X1310620Y528255D01*
Y530925D01*
X1309929Y533504D01*
X1308594Y535816D01*
X1306706Y537704D01*
X1304394Y539039D01*
X1301815Y539730D01*
D02*
G37*
G36*
X1276415D02*
X1273745D01*
X1271166Y539039D01*
X1268854Y537704D01*
X1266966Y535816D01*
X1265631Y533504D01*
X1264940Y530925D01*
Y528255D01*
X1265631Y525676D01*
X1266966Y523364D01*
X1268854Y521476D01*
X1271166Y520141D01*
X1273745Y519450D01*
X1276415D01*
X1278994Y520141D01*
X1281306Y521476D01*
X1283194Y523364D01*
X1284529Y525676D01*
X1285220Y528255D01*
Y530925D01*
X1284529Y533504D01*
X1283194Y535816D01*
X1281306Y537704D01*
X1278994Y539039D01*
X1276415Y539730D01*
D02*
G37*
G36*
X1251015D02*
X1248345D01*
X1245766Y539039D01*
X1243454Y537704D01*
X1241566Y535816D01*
X1240231Y533504D01*
X1239540Y530925D01*
Y528255D01*
X1240231Y525676D01*
X1241566Y523364D01*
X1243454Y521476D01*
X1245766Y520141D01*
X1248345Y519450D01*
X1251015D01*
X1253594Y520141D01*
X1255906Y521476D01*
X1257794Y523364D01*
X1259129Y525676D01*
X1259820Y528255D01*
Y530925D01*
X1259129Y533504D01*
X1257794Y535816D01*
X1255906Y537704D01*
X1253594Y539039D01*
X1251015Y539730D01*
D02*
G37*
G36*
X1225615D02*
X1222945D01*
X1220366Y539039D01*
X1218054Y537704D01*
X1216166Y535816D01*
X1214831Y533504D01*
X1214140Y530925D01*
Y528255D01*
X1214831Y525676D01*
X1216166Y523364D01*
X1218054Y521476D01*
X1220366Y520141D01*
X1222945Y519450D01*
X1225615D01*
X1228194Y520141D01*
X1230506Y521476D01*
X1232394Y523364D01*
X1233729Y525676D01*
X1234420Y528255D01*
Y530925D01*
X1233729Y533504D01*
X1232394Y535816D01*
X1230506Y537704D01*
X1228194Y539039D01*
X1225615Y539730D01*
D02*
G37*
G36*
X1200215D02*
X1197545D01*
X1194966Y539039D01*
X1192654Y537704D01*
X1190766Y535816D01*
X1189431Y533504D01*
X1188740Y530925D01*
Y528255D01*
X1189431Y525676D01*
X1190766Y523364D01*
X1192654Y521476D01*
X1194966Y520141D01*
X1197545Y519450D01*
X1200215D01*
X1202794Y520141D01*
X1205106Y521476D01*
X1206994Y523364D01*
X1208329Y525676D01*
X1209020Y528255D01*
Y530925D01*
X1208329Y533504D01*
X1206994Y535816D01*
X1205106Y537704D01*
X1202794Y539039D01*
X1200215Y539730D01*
D02*
G37*
G36*
X1174815D02*
X1172145D01*
X1169566Y539039D01*
X1167254Y537704D01*
X1165366Y535816D01*
X1164031Y533504D01*
X1163340Y530925D01*
Y528255D01*
X1164031Y525676D01*
X1165366Y523364D01*
X1167254Y521476D01*
X1169566Y520141D01*
X1172145Y519450D01*
X1174815D01*
X1177394Y520141D01*
X1179706Y521476D01*
X1181594Y523364D01*
X1182929Y525676D01*
X1183620Y528255D01*
Y530925D01*
X1182929Y533504D01*
X1181594Y535816D01*
X1179706Y537704D01*
X1177394Y539039D01*
X1174815Y539730D01*
D02*
G37*
G36*
X1149415D02*
X1146745D01*
X1144166Y539039D01*
X1141854Y537704D01*
X1139966Y535816D01*
X1138631Y533504D01*
X1137940Y530925D01*
Y528255D01*
X1138631Y525676D01*
X1139966Y523364D01*
X1141854Y521476D01*
X1144166Y520141D01*
X1146745Y519450D01*
X1149415D01*
X1151994Y520141D01*
X1154306Y521476D01*
X1156194Y523364D01*
X1157529Y525676D01*
X1158220Y528255D01*
Y530925D01*
X1157529Y533504D01*
X1156194Y535816D01*
X1154306Y537704D01*
X1151994Y539039D01*
X1149415Y539730D01*
D02*
G37*
G36*
X1124015D02*
X1121345D01*
X1118766Y539039D01*
X1116454Y537704D01*
X1114566Y535816D01*
X1113231Y533504D01*
X1112540Y530925D01*
Y528255D01*
X1113231Y525676D01*
X1114566Y523364D01*
X1116454Y521476D01*
X1118766Y520141D01*
X1121345Y519450D01*
X1124015D01*
X1126594Y520141D01*
X1128906Y521476D01*
X1130794Y523364D01*
X1132129Y525676D01*
X1132820Y528255D01*
Y530925D01*
X1132129Y533504D01*
X1130794Y535816D01*
X1128906Y537704D01*
X1126594Y539039D01*
X1124015Y539730D01*
D02*
G37*
G36*
X1098615D02*
X1095945D01*
X1093366Y539039D01*
X1091054Y537704D01*
X1089166Y535816D01*
X1087831Y533504D01*
X1087140Y530925D01*
Y528255D01*
X1087831Y525676D01*
X1089166Y523364D01*
X1091054Y521476D01*
X1093366Y520141D01*
X1095945Y519450D01*
X1098615D01*
X1101194Y520141D01*
X1103506Y521476D01*
X1105394Y523364D01*
X1106729Y525676D01*
X1107420Y528255D01*
Y530925D01*
X1106729Y533504D01*
X1105394Y535816D01*
X1103506Y537704D01*
X1101194Y539039D01*
X1098615Y539730D01*
D02*
G37*
G36*
X976695D02*
X974025D01*
X971446Y539039D01*
X969134Y537704D01*
X967246Y535816D01*
X965911Y533504D01*
X965220Y530925D01*
Y528255D01*
X965911Y525676D01*
X967246Y523364D01*
X969134Y521476D01*
X971446Y520141D01*
X974025Y519450D01*
X976695D01*
X979274Y520141D01*
X981586Y521476D01*
X983474Y523364D01*
X984809Y525676D01*
X985500Y528255D01*
Y530925D01*
X984809Y533504D01*
X983474Y535816D01*
X981586Y537704D01*
X979274Y539039D01*
X976695Y539730D01*
D02*
G37*
G36*
X951295D02*
X948625D01*
X946046Y539039D01*
X943734Y537704D01*
X941846Y535816D01*
X940511Y533504D01*
X939820Y530925D01*
Y528255D01*
X940511Y525676D01*
X941846Y523364D01*
X943734Y521476D01*
X946046Y520141D01*
X948625Y519450D01*
X951295D01*
X953874Y520141D01*
X956186Y521476D01*
X958074Y523364D01*
X959409Y525676D01*
X960100Y528255D01*
Y530925D01*
X959409Y533504D01*
X958074Y535816D01*
X956186Y537704D01*
X953874Y539039D01*
X951295Y539730D01*
D02*
G37*
G36*
X925895D02*
X923225D01*
X920646Y539039D01*
X918334Y537704D01*
X916446Y535816D01*
X915111Y533504D01*
X914420Y530925D01*
Y528255D01*
X915111Y525676D01*
X916446Y523364D01*
X918334Y521476D01*
X920646Y520141D01*
X923225Y519450D01*
X925895D01*
X928474Y520141D01*
X930786Y521476D01*
X932674Y523364D01*
X934009Y525676D01*
X934700Y528255D01*
Y530925D01*
X934009Y533504D01*
X932674Y535816D01*
X930786Y537704D01*
X928474Y539039D01*
X925895Y539730D01*
D02*
G37*
G36*
X900495D02*
X897825D01*
X895246Y539039D01*
X892934Y537704D01*
X891046Y535816D01*
X889711Y533504D01*
X889020Y530925D01*
Y528255D01*
X889711Y525676D01*
X891046Y523364D01*
X892934Y521476D01*
X895246Y520141D01*
X897825Y519450D01*
X900495D01*
X903074Y520141D01*
X905386Y521476D01*
X907274Y523364D01*
X908609Y525676D01*
X909300Y528255D01*
Y530925D01*
X908609Y533504D01*
X907274Y535816D01*
X905386Y537704D01*
X903074Y539039D01*
X900495Y539730D01*
D02*
G37*
G36*
X875095D02*
X872425D01*
X869846Y539039D01*
X867534Y537704D01*
X865646Y535816D01*
X864311Y533504D01*
X863620Y530925D01*
Y528255D01*
X864311Y525676D01*
X865646Y523364D01*
X867534Y521476D01*
X869846Y520141D01*
X872425Y519450D01*
X875095D01*
X877674Y520141D01*
X879986Y521476D01*
X881874Y523364D01*
X883209Y525676D01*
X883900Y528255D01*
Y530925D01*
X883209Y533504D01*
X881874Y535816D01*
X879986Y537704D01*
X877674Y539039D01*
X875095Y539730D01*
D02*
G37*
G36*
X849695D02*
X847025D01*
X844446Y539039D01*
X842134Y537704D01*
X840246Y535816D01*
X838911Y533504D01*
X838220Y530925D01*
Y528255D01*
X838911Y525676D01*
X840246Y523364D01*
X842134Y521476D01*
X844446Y520141D01*
X847025Y519450D01*
X849695D01*
X852274Y520141D01*
X854586Y521476D01*
X856474Y523364D01*
X857809Y525676D01*
X858500Y528255D01*
Y530925D01*
X857809Y533504D01*
X856474Y535816D01*
X854586Y537704D01*
X852274Y539039D01*
X849695Y539730D01*
D02*
G37*
G36*
X824295D02*
X821625D01*
X819046Y539039D01*
X816734Y537704D01*
X814846Y535816D01*
X813511Y533504D01*
X812820Y530925D01*
Y528255D01*
X813511Y525676D01*
X814846Y523364D01*
X816734Y521476D01*
X819046Y520141D01*
X821625Y519450D01*
X824295D01*
X826874Y520141D01*
X829186Y521476D01*
X831074Y523364D01*
X832409Y525676D01*
X833100Y528255D01*
Y530925D01*
X832409Y533504D01*
X831074Y535816D01*
X829186Y537704D01*
X826874Y539039D01*
X824295Y539730D01*
D02*
G37*
G36*
X798895D02*
X796225D01*
X793646Y539039D01*
X791334Y537704D01*
X789446Y535816D01*
X788111Y533504D01*
X787420Y530925D01*
Y528255D01*
X788111Y525676D01*
X789446Y523364D01*
X791334Y521476D01*
X793646Y520141D01*
X796225Y519450D01*
X798895D01*
X801474Y520141D01*
X803786Y521476D01*
X805674Y523364D01*
X807009Y525676D01*
X807700Y528255D01*
Y530925D01*
X807009Y533504D01*
X805674Y535816D01*
X803786Y537704D01*
X801474Y539039D01*
X798895Y539730D01*
D02*
G37*
G36*
X773495D02*
X770825D01*
X768246Y539039D01*
X765934Y537704D01*
X764046Y535816D01*
X762711Y533504D01*
X762020Y530925D01*
Y528255D01*
X762711Y525676D01*
X764046Y523364D01*
X765934Y521476D01*
X768246Y520141D01*
X770825Y519450D01*
X773495D01*
X776074Y520141D01*
X778386Y521476D01*
X780274Y523364D01*
X781609Y525676D01*
X782300Y528255D01*
Y530925D01*
X781609Y533504D01*
X780274Y535816D01*
X778386Y537704D01*
X776074Y539039D01*
X773495Y539730D01*
D02*
G37*
G36*
X1075680Y539854D02*
X1068080D01*
X1065606Y539362D01*
X1063509Y537961D01*
X1062108Y535864D01*
X1061616Y533390D01*
Y525790D01*
X1062108Y523316D01*
X1063509Y521219D01*
X1065606Y519818D01*
X1068080Y519326D01*
X1075680D01*
X1078154Y519818D01*
X1080251Y521219D01*
X1081652Y523316D01*
X1082144Y525790D01*
Y533390D01*
X1081652Y535864D01*
X1080251Y537961D01*
X1078154Y539362D01*
X1075680Y539854D01*
D02*
G37*
G36*
X750560D02*
X742960D01*
X740486Y539362D01*
X738389Y537961D01*
X736988Y535864D01*
X736496Y533390D01*
Y525790D01*
X736988Y523316D01*
X738389Y521219D01*
X740486Y519818D01*
X742960Y519326D01*
X750560D01*
X753034Y519818D01*
X755131Y521219D01*
X756532Y523316D01*
X757024Y525790D01*
Y533390D01*
X756532Y535864D01*
X755131Y537961D01*
X753034Y539362D01*
X750560Y539854D01*
D02*
G37*
%LPD*%
D18*
X1366520Y857250D02*
D03*
D22*
X950417Y668020D02*
D03*
X981659D02*
D03*
X965911D02*
D03*
X1274826D02*
D03*
X1290574D02*
D03*
X1259332D02*
D03*
X1156360D02*
D03*
X1187602D02*
D03*
X1171854D02*
D03*
X862939D02*
D03*
X878687D02*
D03*
X847445D02*
D03*
X1053389D02*
D03*
X1084631D02*
D03*
X1068883D02*
D03*
X759968D02*
D03*
X775716D02*
D03*
X744474D02*
D03*
D23*
X997280D02*
D03*
X1306195D02*
D03*
X1203223D02*
D03*
X894308D02*
D03*
X1100252D02*
D03*
X791337D02*
D03*
D24*
X975360Y529590D02*
D03*
X949960D02*
D03*
X924560D02*
D03*
X873760D02*
D03*
X848360D02*
D03*
X822960D02*
D03*
X772160D02*
D03*
X797560D02*
D03*
X899160D02*
D03*
X1300480D02*
D03*
X1275080D02*
D03*
X1249680D02*
D03*
X1198880D02*
D03*
X1173480D02*
D03*
X1148080D02*
D03*
X1097280D02*
D03*
X1122680D02*
D03*
X1224280D02*
D03*
D25*
X746760D02*
D03*
X1071880D02*
D03*
D26*
X750570Y767800D02*
D03*
X1077468D02*
D03*
X859536D02*
D03*
X1186434D02*
D03*
X1295400D02*
D03*
X968502D02*
D03*
D27*
X750570Y857800D02*
D03*
X1077468D02*
D03*
X859536D02*
D03*
X1186434D02*
D03*
X1295400D02*
D03*
X968502D02*
D03*
D28*
X641750Y589280D02*
D03*
X691750D02*
D03*
M02*
