G04*
G04 #@! TF.GenerationSoftware,Altium Limited,Altium Designer,23.10.1 (27)*
G04*
G04 Layer_Color=16711935*
%FSLAX44Y44*%
%MOMM*%
G71*
G04*
G04 #@! TF.SameCoordinates,EF3A79F6-4BF0-4314-9102-79B481C5C986*
G04*
G04*
G04 #@! TF.FilePolarity,Negative*
G04*
G01*
G75*
%ADD14C,1.2732*%
%ADD15R,1.2732X1.2732*%
%ADD16C,1.7232*%
G04:AMPARAMS|DCode=17|XSize=1.7232mm|YSize=1.7232mm|CornerRadius=0.4816mm|HoleSize=0mm|Usage=FLASHONLY|Rotation=0.000|XOffset=0mm|YOffset=0mm|HoleType=Round|Shape=RoundedRectangle|*
%AMROUNDEDRECTD17*
21,1,1.7232,0.7600,0,0,0.0*
21,1,0.7600,1.7232,0,0,0.0*
1,1,0.9632,0.3800,-0.3800*
1,1,0.9632,-0.3800,-0.3800*
1,1,0.9632,-0.3800,0.3800*
1,1,0.9632,0.3800,0.3800*
%
%ADD17ROUNDEDRECTD17*%
%ADD18C,1.5700*%
%ADD19R,1.5532X1.5532*%
%ADD20C,1.5532*%
%ADD21C,1.7112*%
D14*
X950417Y668020D02*
D03*
X981659D02*
D03*
X965911D02*
D03*
X1274826D02*
D03*
X1290574D02*
D03*
X1259332D02*
D03*
X1156360D02*
D03*
X1187602D02*
D03*
X1171854D02*
D03*
X862939D02*
D03*
X878687D02*
D03*
X847445D02*
D03*
X1053389D02*
D03*
X1084631D02*
D03*
X1068883D02*
D03*
X759968D02*
D03*
X775716D02*
D03*
X744474D02*
D03*
D15*
X997280D02*
D03*
X1306195D02*
D03*
X1203223D02*
D03*
X894308D02*
D03*
X1100252D02*
D03*
X791337D02*
D03*
D16*
X975360Y529590D02*
D03*
X949960D02*
D03*
X924560D02*
D03*
X873760D02*
D03*
X848360D02*
D03*
X822960D02*
D03*
X772160D02*
D03*
X797560D02*
D03*
X899160D02*
D03*
X1300480D02*
D03*
X1275080D02*
D03*
X1249680D02*
D03*
X1198880D02*
D03*
X1173480D02*
D03*
X1148080D02*
D03*
X1097280D02*
D03*
X1122680D02*
D03*
X1224280D02*
D03*
D17*
X746760D02*
D03*
X1071880D02*
D03*
D18*
X1366520Y857250D02*
D03*
D19*
X750570Y767800D02*
D03*
X1077468D02*
D03*
X859536D02*
D03*
X1186434D02*
D03*
X1295400D02*
D03*
X968502D02*
D03*
D20*
X750570Y857800D02*
D03*
X1077468D02*
D03*
X859536D02*
D03*
X1186434D02*
D03*
X1295400D02*
D03*
X968502D02*
D03*
D21*
X641750Y589280D02*
D03*
X691750D02*
D03*
M02*
